<svg xmlns="http://www.w3.org/2000/svg" viewBox="0 0 100 99.98">
	<defs>
		<style>.cls-1{fill:#1A78F4;}</style>
	</defs>
	<title>Facebook</title>
	<g id="Layer_2" data-name="Layer 2">
		<g id="Layer_1-2" data-name="Layer 1">
			<path class="cls-1" d="M0,46.09c.07-.08.18-.17.19-.25,0-.46-.14-1,0-1.36C.55,43.8.15,43,.59,42.39A9.31,9.31,0,0,1,1,39.72a35.22,35.22,0,0,1,.85-3.44c.34-1.1.7-2.18,1.06-3.27.28-.83.65-1.62,1-2.43a36.79,36.79,0,0,1,2-4.16c.46-.86.92-1.71,1.42-2.54.41-.68.85-1.35,1.32-2,.67-.93,1.37-1.84,2.06-2.76s1.64-1.93,2.45-2.9a20.65,20.65,0,0,1,2.47-2.56c1.1-.94,2.13-1.95,3.3-2.82s2.52-1.92,3.84-2.79c.75-.51,1.57-.92,2.33-1.42a32.86,32.86,0,0,1,3.85-2c1.08-.51,2.22-.93,3.33-1.39a24.89,24.89,0,0,1,3.26-1.08c.7-.19,1.41-.38,2.1-.59.5-.16,1-.27,1.5-.39A20.4,20.4,0,0,0,41.5.62,9.57,9.57,0,0,1,42.88.43c.89-.17,1.85-.06,2.74-.25A18.16,18.16,0,0,1,49.15,0c1.17,0,2.35,0,3.52,0a7.78,7.78,0,0,1,1.67.2C54.9.31,55.49,0,56,.39c.07,0,.2,0,.29,0,.37.06.77-.12,1.12.12s.81-.1,1.19.2.77-.1,1.06.27a16.61,16.61,0,0,1,2.79.56c1.27.3,2.51.69,3.74,1.11s2.63,1,3.94,1.56S72.72,5.41,74,6.08c1.44.77,2.84,1.64,4.22,2.54,1,.62,1.81,1.43,2.74,2.11s1.83,1.56,2.75,2.33a20.28,20.28,0,0,1,2.23,2.11c1.09,1.23,2.21,2.42,3.22,3.73s1.92,2.51,2.79,3.83c.51.76.91,1.58,1.42,2.34a31.3,31.3,0,0,1,2,3.84c.52,1.09.94,2.22,1.39,3.33A33.08,33.08,0,0,1,98,36.11c.19.76.44,1.51.62,2.28.06.24.09.48.14.72a6.06,6.06,0,0,1,.19.7,16,16,0,0,1,.39,2.57c.31.39.1.87.21,1.28.21.72,0,1.48.22,2.16a11.38,11.38,0,0,1,.15,2.66c0,1,0,2,0,3,.09,1.35-.2,2.68-.24,4,0,.48-.12,1-.18,1.48a5.87,5.87,0,0,0-.18,1.38c-.4.33,0,.84-.32,1.24s0,.77-.24,1.17a9.56,9.56,0,0,0-.23,1.27c-.5,1.55-.85,3.15-1.42,4.68-.41,1.1-.84,2.19-1.32,3.26s-1.13,2.4-1.75,3.57c-.46.89-1,1.75-1.49,2.61-.39.65-.79,1.3-1.24,1.92C90.7,79,90,80,89.31,80.87s-1.66,1.92-2.46,2.9a30.25,30.25,0,0,1-2.61,2.7c-.45.43-.95.83-1.41,1.26s-.89.81-1.37,1.17C80,90,78.58,91.06,77.1,92.07c-.84.58-1.81,1-2.67,1.54a31.15,31.15,0,0,1-3.12,1.67c-1.16.56-2.38,1-3.58,1.49a34.89,34.89,0,0,1-3.86,1.28,18.63,18.63,0,0,0-2.35.68c-.36.15-.8-.14-1.07.25a23.65,23.65,0,0,0-2.76.44,35.73,35.73,0,0,1-3.73.4s-.05.1-.07.16H46.08c0-.27-.21-.19-.35-.19a4.36,4.36,0,0,1-1.45,0,7.53,7.53,0,0,0-1.2-.17,3,3,0,0,0-1.19-.19.7.7,0,0,1-.38,0,10.57,10.57,0,0,0-2.4-.55c-.53-.14-1.07-.25-1.59-.41s-1.34-.41-2-.58a24.51,24.51,0,0,1-3.27-1.07,11.83,11.83,0,0,1-2.47-1.09c-.76,0-1.32-.58-2-.84a9,9,0,0,1-1.94-1c-1.52-1.08-3.2-1.91-4.7-3a49.63,49.63,0,0,1-4.6-3.7,3.25,3.25,0,0,0-.42-.41,12.57,12.57,0,0,1-2.72-2.58c-.94-1.08-1.93-2.14-2.8-3.3-.68-.92-1.35-1.85-2-2.78-.46-.65-.92-1.3-1.33-2-.5-.83-.93-1.7-1.4-2.54a33.56,33.56,0,0,1-2-4.15c-.32-.81-.68-1.61-1-2.43-.38-1.09-.72-2.18-1.06-3.27A30.29,30.29,0,0,1,1,60.26,9.6,9.6,0,0,1,.59,57.6c-.44-.64,0-1.41-.36-2.1-.18-.37,0-.89,0-1.35,0-.08-.12-.17-.19-.25ZM53.32,96.6v.09l2.85-.23s.07,0,.09,0a15.85,15.85,0,0,1,2.89-.55,8,8,0,0,1,2.27-.44c1.46-.66,3.06-.87,4.55-1.5,1.16-.49,2.36-.9,3.51-1.43,1.42-.65,2.8-1.4,4.19-2.13a12.42,12.42,0,0,0,1.23-.81c.91-.64,1.84-1.24,2.74-1.9A32.4,32.4,0,0,0,81.07,85a49.06,49.06,0,0,0,5.43-5.73c.66-.87,1.34-1.73,2-2.61A40.06,40.06,0,0,0,91.3,72,44.86,44.86,0,0,0,94,65.83c.37-1.06.77-2.11,1-3.18a16.81,16.81,0,0,0,.82-3.77c.47-.37-.08-1,.39-1.4A4.93,4.93,0,0,1,96.45,56a7.89,7.89,0,0,1,.17-1.59,8,8,0,0,0,0-1.55c0-.53.15-1,.18-1.58q0-1.12,0-2.25c0-.72-.14-1.44-.19-2.16-.07-1-.13-2-.2-3a.33.33,0,0,0,0-.1,14,14,0,0,1-.54-2.79c-.18-1-.43-2-.68-3-.3-1.15-.67-2.31-1.08-3.45-.47-1.3-1-2.6-1.52-3.86-.68-1.51-1.47-3-2.29-4.42a8.18,8.18,0,0,0-.67-1.09c-.7-.9-1.29-1.89-2-2.81A35.29,35.29,0,0,0,85,18.92a42.26,42.26,0,0,0-4.66-4.51c-1.09-.85-2.09-1.82-3.22-2.6a51.12,51.12,0,0,0-4.9-3,49.42,49.42,0,0,0-5.83-2.66,13,13,0,0,0-2.28-.82c-1.18-.21-2.29-.64-3.46-.89S58.39,4,57.29,3.75A10.69,10.69,0,0,0,56,3.53a7.43,7.43,0,0,1-1.39-.17,8.22,8.22,0,0,0-1.65,0c-.56,0-1.12-.14-1.68-.18a43.32,43.32,0,0,0-5.09.2c-.82,0-1.64.12-2.46.18,0,0-.08,0-.09,0-.25.33-.6.13-.9.19s-.6.15-.9.19c-.57.09-1.14.23-1.71.35s-1.17.31-1.77.43c-.93.19-1.81.5-2.72.75a39.76,39.76,0,0,0-5,1.9,46.13,46.13,0,0,0-4.42,2.28,7.59,7.59,0,0,0-1.09.67c-.91.7-1.89,1.29-2.81,2A32.69,32.69,0,0,0,18.93,15a50.84,50.84,0,0,0-5.43,5.74c-.81,1.06-1.61,2.13-2.39,3.21a39.53,39.53,0,0,0-2.67,4.46A18.72,18.72,0,0,0,7,31.53c-.17.57-.53,1.08-.75,1.64s-.4,1.2-.6,1.8A20.78,20.78,0,0,0,5,37.13a7.15,7.15,0,0,0-.5,2.23,26.76,26.76,0,0,0-.77,3.3c.13.52-.22,1-.2,1.48a2.69,2.69,0,0,1-.19,1.48,27,27,0,0,1-.21,3.92c-.06,1.35.27,2.68.2,4a23.65,23.65,0,0,1,.21,2.65s0,.08,0,.1c.25.22.16.52.2.8s.16.59.18.89a14.84,14.84,0,0,0,.37,1.9c.1.64.3,1.25.43,1.88.18.85.5,1.68.72,2.53.16.58.43,1.13.61,1.69.37,1.19.92,2.3,1.39,3.44a37.87,37.87,0,0,0,2.79,5.27A38.27,38.27,0,0,0,14.91,81a46.46,46.46,0,0,0,5.8,5.5c1.07.8,2.11,1.64,3.21,2.39a45.77,45.77,0,0,0,4.31,2.57,39.82,39.82,0,0,0,4.35,2,34.46,34.46,0,0,0,5.15,1.69c.8.18,1.61.39,2.39.62s1.68.29,2.51.51,1.84.21,2.76.4a14.7,14.7,0,0,0,1.76,0c.59,0,1.18.15,1.77.18.75,0,1.5,0,2.24,0S52.6,96.69,53.32,96.6Z"/>
			<path class="cls-1" d="M53.11,65.25V76.86a1.19,1.19,0,0,1-1.3,1.25c-2,0-4,0-6,0H42.24a1.48,1.48,0,0,1-1.63-1.61V53.75c0-.63,0-.63-.59-.63H36a1.49,1.49,0,0,1-1.65-1.6q0-4.64,0-9.27A1.47,1.47,0,0,1,36,40.62c1.4,0,2.8,0,4.2,0,.32,0,.45,0,.44-.41q0-2.88,0-5.76c0-.5.15-1,.18-1.48a8.83,8.83,0,0,1,0-1.46c.17-.7.22-1.4.38-2.09a12.62,12.62,0,0,1,.58-1.9,9.91,9.91,0,0,1,1.46-2.33,8.57,8.57,0,0,1,2.33-1.91,6.77,6.77,0,0,1,2.1-.8,8.93,8.93,0,0,1,2.86-.42c2-.41,4.11-.12,6.17-.18,1.39-.05,2.79,0,4.19,0a1.48,1.48,0,0,1,1.58,1.57c0,3.12,0,6.25,0,9.37a1.42,1.42,0,0,1-.72,1.33,2.88,2.88,0,0,1-1.28.22c-1.33,0-2.66,0-4,0-.42,0-.84,0-1.27,0a2.44,2.44,0,0,1-.54-.09c-.86-.25-1.55.17-1.56,1,0,1.69,0,3.39,0,5.08a.3.3,0,0,0,.2.22,5.17,5.17,0,0,0,.68,0h6.84a1.49,1.49,0,0,1,1.64,1.61V51.5a1.48,1.48,0,0,1-1.63,1.62c-2.44,0-4.88,0-7.32,0-.34,0-.43.06-.43.42C53.11,57.44,53.11,61.34,53.11,65.25ZM50.18,63c0-3.81,0-7.61,0-11.42a1.46,1.46,0,0,1,.41-1.11A1.4,1.4,0,0,1,51.77,50c1.11,0,2.22,0,3.32,0,1.3,0,2.6,0,3.9,0,.31,0,.37-.1.37-.38,0-1.83,0-3.65,0-5.47,0-.38-.13-.41-.45-.41H54.34c-.88,0-1.76,0-2.64,0a1.84,1.84,0,0,1-1.23-.57c-.35-.28-.29-.62-.29-1,0-2.18,0-4.36,0-6.54a5.16,5.16,0,0,1,.36-2.29,3.6,3.6,0,0,1,.58-1,4,4,0,0,1,3-1.29c1.63-.06,3.26,0,4.88,0,.18,0,.39.08.39-.25,0-1.76,0-3.52,0-5.27,0-.35-.18-.5-.52-.53h-7c-.16,0-.37-.06-.47,0-.35.27-.74.15-1.1.19s-.73.13-1.09.19a6.13,6.13,0,0,0-2.8,1.24,5.42,5.42,0,0,0-1.7,2.21,4.6,4.6,0,0,0-.52,1.93c-.37.32,0,.78-.21,1.09a2.13,2.13,0,0,0-.17,1.1c0,2.93,0,5.85,0,8.78a3.92,3.92,0,0,1-.22,1.19,1.21,1.21,0,0,1-1.13.82H37.81c-.25,0-.33.07-.33.33,0,1.85,0,3.71,0,5.56,0,.3.1.37.38.37h4.2c1,0,1.18.21,1.57,1.12a2.06,2.06,0,0,1,.1.84q0,5.74,0,11.51v11c0,.48,0,.48.44.49h5.37c.62,0,.63,0,.63-.6Z"/>
		</g>
	</g>
</svg>