<svg xmlns="http://www.w3.org/2000/svg" viewBox="0 0 100 100">
	<defs>
		<style>.cls-1{fill: #E032AB;}</style>
	</defs>
	<title>Instagram</title>
	<g id="Layer_2" data-name="Layer 2">
		<g id="Layer_1-2" data-name="Layer 1">
			<path class="cls-1" d="M50.06,0A50,50,0,1,1,0,49.91,50,50,0,0,1,50.06,0ZM95.7,50.07A45.7,45.7,0,1,0,49.9,95.7,45.69,45.69,0,0,0,95.7,50.07Z"/>
			<path class="cls-1" d="M49.93,69.89a19.89,19.89,0,1,1,20-19.79A19.83,19.83,0,0,1,49.93,69.89ZM65.6,50.08A15.61,15.61,0,1,0,49.88,65.6,15.57,15.57,0,0,0,65.6,50.08Z"/>
			<path class="cls-1" d="M78.89,25.55a4.13,4.13,0,0,1-4.18,4.08,4.29,4.29,0,0,1-4.36-4.51A4.21,4.21,0,0,1,74.53,21,4.34,4.34,0,0,1,78.89,25.55Z"/>
		</g>
	</g>
</svg>