<svg xmlns="http://www.w3.org/2000/svg" viewBox="0 0 100 100">
	<defs>
		<style>.cls-1{fill:#0077B5;}</style>
	</defs>
	<title>Linkedin</title>
	<g id="Layer_2" data-name="Layer 2">
		<g id="Layer_1-2" data-name="Layer 1">
			<path class="cls-1" d="M0,47.43c.2-1.54.36-3.09.59-4.63A49.15,49.15,0,0,1,18.43,11.28,48.4,48.4,0,0,1,43.53.42,50,50,0,0,1,62,98.46c-2.88.72-5.9.92-8.85,1.37a7.47,7.47,0,0,0-.76.17H47.69c-1.38-.15-2.77-.28-4.16-.47A50,50,0,0,1,.59,57.14C.36,55.6.2,54.06,0,52.51ZM50.07,3A46.94,46.94,0,1,0,97,50,47,47,0,0,0,50.07,3Z"/>
			<path class="cls-1" d="M52.72,68.47c-3.12,0-6.08,0-9,0-.58,0-.61-.34-.6-.77,0-1.79,0-3.58,0-5.37,0-7.39,0-14.78,0-22.17,0-.28.3-.8.48-.81,3,0,6,0,9.09,0V43.4a5.54,5.54,0,0,0,.48-.53c2.71-3.83,6.51-4.79,10.87-4,4.14.78,6.69,3.43,7.83,7.42a15.27,15.27,0,0,1,.7,4.12c.08,6,0,11.91,0,18-.35,0-.7,0-1,0-2.48,0-5,0-7.43,0-.88,0-1.17-.21-1.16-1.13q.07-7,0-14.06a13.73,13.73,0,0,0-.4-3.57,4.76,4.76,0,0,0-7.7-2.45,5.27,5.27,0,0,0-2.16,4.28q0,7.81,0,15.63Z"/>
			<path class="cls-1" d="M28,68.35v-29h2c2.21,0,4.43,0,6.64,0,.68,0,.91.23.91.9q0,13.68,0,27.36c0,.45,0,.92-.67.92-2.86,0-5.73,0-8.59,0A1.06,1.06,0,0,1,28,68.35Z"/>
			<path class="cls-1" d="M32.8,35.25a5.05,5.05,0,0,1-5.38-5c0-2.9,2.29-5,5.45-5a5.06,5.06,0,0,1,5.39,5C38.3,33.09,36,35.24,32.8,35.25Z"/>
		</g>
	</g>
</svg>