<svg xmlns="http://www.w3.org/2000/svg" viewBox="0 0 100 100">
	<defs>
		<style>.cls-1{fill:#1DA1F2;}</style>
	</defs>
	<title>Twitter</title>
	<g id="Layer_2" data-name="Layer 2">
		<g id="Layer_1-2" data-name="Layer 1">
			<path class="cls-1" d="M50,100a50,50,0,1,1,50-50A50,50,0,0,1,50,100ZM95.65,50A45.65,45.65,0,1,0,49.92,95.65,45.61,45.61,0,0,0,95.65,50Z"/>
			<path class="cls-1" d="M33.64,66.36l-1-.61a14,14,0,0,1-6.07-6.86,2.82,2.82,0,0,1,.15-3.09c-.66-.76-1.32-1.45-1.9-2.19A13.19,13.19,0,0,1,22,46.2c-.11-2,0-2.17,1.42-3.19-.43-1.64-1-3.22-1.22-4.84a12.94,12.94,0,0,1,1.62-8.38c.93-1.7,2.61-1.86,3.88-.37a31.88,31.88,0,0,0,19,10.93c.44.09.89.12,1.37.19.15-1,.25-2,.44-3,1.93-9.63,13.59-15.08,22.22-8.35a1.61,1.61,0,0,0,1.72.35c1.64-.65,3.31-1.24,4.91-2,1.35-.61,2.21-.63,3,.17s.84,1.76.15,3l-.56,1c2.72.36,3.49,2,1.81,4.1a49.67,49.67,0,0,1-4.33,4.5,2.16,2.16,0,0,0-.8,1.69c-.15,14.72-9,28.21-22.33,33.47-11.43,4.5-22.57,3.57-33.19-2.72-1.35-.8-1.78-1.74-1.41-2.87s1.38-1.57,2.87-1.39A19.49,19.49,0,0,0,33.64,66.36Zm-1.19-6.83c1.87,2.31,4,3.79,6.88,4a2.23,2.23,0,0,1,2.32,1.64,2.33,2.33,0,0,1-1.2,2.6,26.31,26.31,0,0,1-9.35,4.11c-.24.06-.46.15-.87.29A31.12,31.12,0,0,0,48.1,73C62.29,69.6,72.35,56.5,72.29,41.63c0-1.26-.19-2.56,1.2-3.38-2.19-.89-2.57-1.89-1.59-4a2.94,2.94,0,0,1-2.83-1.08,9.81,9.81,0,0,0-13.92.52,9.54,9.54,0,0,0-2.46,8.53c.28,1.62-.25,2.76-1.54,3a5.9,5.9,0,0,1-1.68,0,36.1,36.1,0,0,1-21.66-9.7l-1-.95a14.63,14.63,0,0,0-.34,2.6,9.48,9.48,0,0,0,4.08,7.45c1.16.87,1.49,1.87,1,2.92a2.33,2.33,0,0,1-3,1.06c-.52-.14-1-.34-1.56-.51,0,.16-.05.2,0,.23a1.46,1.46,0,0,0,.07.3,9.64,9.64,0,0,0,6.86,6.22c1.43.37,2.2,1.24,2.1,2.38s-1,1.9-2.43,2.07C33.2,59.39,32.9,59.45,32.45,59.53Z"/>
		</g>
	</g>
</svg>